HIERARCHY
ROOT Hips
{
  OFFSET 267.745 86.9975 -272.335
  CHANNELS 6 Xposition Yposition Zposition Zrotation Xrotation Yrotation
  JOINT LeftUpLeg
  {
    OFFSET 8.64259 1.95398 -2.38835
    CHANNELS 3 Zrotation Xrotation Yrotation
    JOINT LeftLeg
    {
      OFFSET 43.7702 0 0
      CHANNELS 3 Zrotation Xrotation Yrotation
      JOINT LeftFoot
      {
        OFFSET 40.6238 0 0
        CHANNELS 3 Zrotation Xrotation Yrotation
        JOINT LeftToeBase
        {
          OFFSET 12.7242 0 0
          CHANNELS 3 Zrotation Xrotation Yrotation
          End Site
          {
            OFFSET 0 0 0
          }
        }
      }
    }
  }
  JOINT RightUpLeg
  {
    OFFSET -8.2249 1.95398 -2.59336
    CHANNELS 3 Zrotation Xrotation Yrotation
    JOINT RightLeg
    {
      OFFSET 43.5653 0 0
      CHANNELS 3 Zrotation Xrotation Yrotation
      JOINT RightFoot
      {
        OFFSET 40.6238 0 0
        CHANNELS 3 Zrotation Xrotation Yrotation
        JOINT RightToeBase
        {
          OFFSET 12.7242 0 0
          CHANNELS 3 Zrotation Xrotation Yrotation
          End Site
          {
            OFFSET 0 0 0
          }
        }
      }
    }
  }
  JOINT Spine
  {
    OFFSET 0.165834 0.87714 6.61349
    CHANNELS 3 Zrotation Xrotation Yrotation
    JOINT Spine1
    {
      OFFSET 7.38963 1.71661e-005 0
      CHANNELS 3 Zrotation Xrotation Yrotation
      JOINT Spine2
      {
        OFFSET 11.9445 1.14441e-005 0
        CHANNELS 3 Zrotation Xrotation Yrotation
        JOINT Spine3
        {
          OFFSET 14.7254 4.19617e-005 0
          CHANNELS 3 Zrotation Xrotation Yrotation
          JOINT Spine4
          {
            OFFSET 10.9679 0 0
            CHANNELS 3 Zrotation Xrotation Yrotation
            JOINT RightShoulder
            {
              OFFSET 2.46616 -1.6653 3.69651
              CHANNELS 3 Zrotation Xrotation Yrotation
              JOINT RightArm
              {
                OFFSET 13.0012 0 0
                CHANNELS 3 Zrotation Xrotation Yrotation
                JOINT RightForeArm
                {
                  OFFSET 28.7848 1.52588e-005 0
                  CHANNELS 3 Zrotation Xrotation Yrotation
                  JOINT RightHand
                  {
                    OFFSET 26.5688 1.52588e-005 0
                    CHANNELS 3 Zrotation Xrotation Yrotation
                    End Site
                    {
                      OFFSET 0 0 0
                    }
                  }
                }
              }
            }
            JOINT LeftShoulder
            {
              OFFSET 2.38034 -1.29275 -3.7523
              CHANNELS 3 Zrotation Xrotation Yrotation
              JOINT LeftArm
              {
                OFFSET 16.3182 6.10352e-005 0
                CHANNELS 3 Zrotation Xrotation Yrotation
                JOINT LeftForeArm
                {
                  OFFSET 27.0901 0 0
                  CHANNELS 3 Zrotation Xrotation Yrotation
                  JOINT LeftHand
                  {
                    OFFSET 24.5451 1.52588e-005 0
                    CHANNELS 3 Zrotation Xrotation Yrotation
                    End Site
                    {
                      OFFSET 0 0 0
                    }
                  }
                }
              }
            }
            JOINT Neck
            {
              OFFSET 5.0226 -0.0266342 0
              CHANNELS 3 Zrotation Xrotation Yrotation
              JOINT Head
              {
                OFFSET 6.69364 2.86102e-005 0
                CHANNELS 3 Zrotation Xrotation Yrotation
                End Site
                {
                  OFFSET 0 0 0
                }
              }
            }
          }
        }
      }
    }
  }
}
MOTION
Frames:	12
Frame Time:	0.0416667
265.171 79.5763 -271.993 -93.5193 -43.1054 -92.2417 -124.31 14.8609 104.205 42.3833 18.0118 -71.4968 40.7826 10.7674 -17.2192 -15.964 -5.43488 19.8285 -173.114 69.6129 86.463 -80.4193 -59.7491 -0.301151 13.0642 30.3865 13.1076 -63.7071 -20.4934 42.4736 1.69777 5.78444 -90.2248 15.3255 3.24416 -0.948912 3.65809 3.19926 -1.09092 -18.9096 3.37919 0.0710515 1.10304 3.3792 0.0710499 122.667 -41.8144 -47.2977 86.5703 6.01319 -74.4328 -44.9509 3.08803 -0.0197421 -95.4062 29.6882 -32.5114 -111.039 -55.3637 50.7027 -8.23571 -14.4898 68.5635 20.0457 19.7237 -83.416 -26.5496 -4.85698 17.6253 -62.4259 10.1154 -16.7737 35.8155 20.4136 46.3671 
265.4 79.515 -272.208 -93.5943 -43.1609 -92.4006 -123.969 14.796 103.975 42.6877 18.0613 -71.6343 40.5447 10.7851 -17.3934 -15.5703 -5.39896 19.8212 -172.972 69.7199 86.2962 -81.0822 -59.5056 -0.507251 12.533 30.5058 13.6781 -63.5944 -19.3927 41.5918 1.68494 5.79903 -90.2069 15.2956 3.22798 -0.909185 3.62829 3.18485 -1.05051 -18.9391 3.35183 0.104066 1.07353 3.35183 0.104065 122.673 -42.0747 -47.4044 86.0393 5.84106 -74.5618 -44.6859 5.43836 -0.0198025 -95.1027 31.3298 -34.1835 -110.911 -55.2389 50.8137 -8.32078 -14.4824 68.4803 19.8648 19.6683 -83.6394 -26.5243 -4.9528 18.0807 -62.3462 10.1418 -16.7815 35.9891 20.514 46.3474 
266.064 79.3395 -272.831 -93.8162 -43.3228 -92.8641 -123.018 14.6038 103.31 43.5511 18.2016 -72.0198 39.8501 10.8234 -17.8658 -14.4069 -5.28706 19.787 -172.546 69.9959 85.8024 -82.9596 -58.7728 -1.0968 10.9667 30.8343 15.3748 -63.0082 -16.2141 39.0964 1.64736 5.84161 -90.1551 15.2085 3.18017 -0.793864 3.54107 3.14216 -0.93319 -19.0254 3.27159 0.199645 0.98726 3.27158 0.199637 122.685 -42.8301 -47.7177 84.4891 5.3537 -74.9395 -43.9759 12.804 -0.0202161 -93.1655 36.2921 -39.9355 -110.536 -54.8726 51.1391 -8.57251 -14.4612 68.2348 19.3414 19.51 -84.2875 -26.4473 -5.2294 19.4005 -62.1113 10.2195 -16.8041 36.4904 20.8039 46.2849 
267.128 79.0635 -273.828 -94.1856 -43.5852 -93.615 -121.611 14.2861 102.258 44.8721 18.4148 -72.5982 38.7265 10.8497 -18.5291 -12.4834 -5.08881 19.6968 -171.821 70.3302 84.9831 -85.8264 -57.5113 -2.01131 8.41607 31.2925 18.1879 -61.3025 -11.2519 35.2216 1.5858 5.91092 -90.0722 15.0667 3.10092 -0.609118 3.39922 3.07109 -0.745119 -19.1656 3.14048 0.351937 0.847078 3.14047 0.351938 122.69 -44.0388 -48.2295 81.985 4.61343 -75.553 -43.0256 26.4208 -0.0220126 -85.3685 44.1323 -53.0507 -109.928 -54.2722 51.6704 -8.98904 -14.4279 67.8318 18.5065 19.2674 -85.33 -26.3134 -5.66946 21.5179 -61.7249 10.3481 -16.8407 37.2854 21.2648 46.1698 
268.552 78.6995 -275.162 -94.7097 -43.9427 -94.6404 -119.948 13.8511 100.871 46.5201 18.6839 -73.2988 37.2166 10.8296 -19.2617 -9.80121 -4.79876 19.5207 -170.784 70.5705 83.8434 -89.4277 -55.6231 -3.17217 5.02183 31.7513 22.0292 -57.6135 -5.00477 30.0685 1.501 6.00607 -89.9611 14.8723 2.98943 -0.361143 3.2047 2.97065 -0.492494 -19.3576 2.95963 0.554807 0.655085 2.95965 0.554799 122.671 -45.6558 -48.9343 78.5986 3.70183 -76.3873 -41.9695 47.7459 -0.0293171 -63.1356 49.961 -80.1263 -109.097 -53.4381 52.4033 -9.57296 -14.3839 67.2736 17.3908 18.9658 -86.7392 -26.111 -6.25456 24.371 -61.1878 10.5296 -16.891 38.3358 21.8768 45.9875 
270.296 78.2595 -276.792 -95.4012 -44.3887 -95.9318 -118.241 13.3191 99.2122 48.3534 19.0014 -74.043 35.3868 10.7363 -19.9552 -6.37705 -4.42436 19.2397 -169.456 70.5472 82.4284 -93.5547 -53.1631 -4.50362 1.10413 32.3071 26.6143 -50.9431 1.75527 23.5193 1.39293 6.12633 -89.8244 14.6269 2.84433 -0.0560189 2.95903 2.83912 -0.181262 -19.5997 2.72958 0.80207 0.412922 2.72956 0.802054 122.602 -47.633 -49.8338 74.4154 2.7122 -77.4214 -40.51 75.8317 -0.0805379 -32.1427 42.3717 -112.997 -108.049 -52.3659 53.3378 -10.33 -14.3284 66.5607 16.0231 18.632 -88.4842 -25.8221 -6.96226 27.9008 -60.4989 10.768 -16.9552 39.6026 22.6202 45.7221 
272.314 77.756 -278.674 -96.2767 -44.9141 -97.484 -116.69 12.727 97.3418 50.236 19.378 -74.7521 33.3251 10.5428 -20.5231 -2.26254 -3.98671 18.8475 -167.927 70.0816 80.857 -98.1008 -50.388 -5.96833 -2.91943 33.4798 31.502 -40.0524 7.7299 15.3665 1.26188 6.27118 -89.665 14.3319 2.66419 0.30013 2.66368 2.67481 0.182505 -19.8905 2.45077 1.08743 0.122168 2.45075 1.08742 122.451 -49.9156 -50.9342 69.5494 1.74169 -78.6215 141.638 74.6092 -179.927 -13.099 23.4434 -129.594 -106.791 -51.0465 54.4777 -11.2688 -14.2582 65.6921 14.4316 18.296 -90.527 -25.425 -7.76442 32.0442 -59.6574 11.0672 -17.034 41.0456 23.4742 45.358 
274.558 77.2046 -280.762 -97.3557 -45.5068 -99.2938 -115.45 12.1253 95.312 52.0681 19.8486 -75.36 31.1324 10.1999 -20.9057 2.43324 -3.51726 18.3469 -166.352 68.9799 79.3223 -102.503 -44.7404 -7.18375 -6.47588 33.5176 35.9394 -23.3014 10.4817 6.33681 1.10806 6.43989 -89.4855 13.989 2.44763 0.700857 2.32026 2.47609 0.592383 -20.2281 2.1238 1.40432 -0.215486 2.12378 1.40431 122.179 -52.4392 -52.2457 64.156 0.88029 -79.9359 144.96 49.423 -179.973 -2.98808 4.88586 -133.679 -105.326 -49.4668 55.8331 -12.4013 -14.1662 64.6647 12.6464 17.9949 -92.8176 -24.8985 -8.62747 36.728 -58.6636 11.4317 -17.1287 42.6231 24.4163 44.8807 
276.979 76.6243 -283.008 -98.6591 -46.1507 -101.36 -114.588 11.5537 93.1591 53.8286 20.4772 -75.8306 28.9095 9.60903 -21.0818 7.52851 -3.04918 17.7391 -164.869 67.0041 78.0044 -106.457 -35.5735 -8.12391 -9.41221 33.5722 39.2437 -0.0110948 6.65247 2.23966 0.932017 6.63163 -89.2888 13.6002 2.19369 1.13953 1.93071 2.2417 1.04184 -20.6107 1.74984 1.7462 -0.598078 1.74981 1.7462 121.742 -55.1311 -53.7856 58.4282 0.194531 -81.301 148.84 30.301 -179.981 3.7636 -8.91278 -132.647 -103.655 -47.6102 57.4208 -13.7425 -14.0396 63.4724 10.6983 17.7667 -95.2914 -24.2254 -9.51247 41.8685 -57.52 11.8641 -17.2407 44.2944 25.4236 44.2796 
279.535 76.037 -285.371 -100.208 -46.8256 -103.683 -114.073 11.0122 90.8983 55.575 21.3508 -76.1622 26.753 8.61533 -21.0786 12.7707 -2.60743 17.0023 -163.48 63.8221 76.9967 -109.252 -19.1364 -8.9445 -12.2101 33.4784 40.8785 25.8999 -0.498024 18.5574 0.734307 6.84551 -89.0775 13.1678 1.90174 1.60963 1.49734 1.97073 1.52436 -21.036 1.33017 2.10665 -1.0234 1.33018 2.10665 121.081 -57.9141 -55.5837 52.577 -0.285219 -82.651 152.966 16.1885 -179.985 9.00729 -18.3317 -129.913 -101.78 -45.4587 59.2647 -15.3098 -13.8575 62.1049 8.61947 17.6459 -97.8787 -23.3938 -10.3731 47.3751 -56.2318 12.3655 -17.3698 46.0214 26.4738 43.5485 
282.198 75.4675 -287.82 -102.022 -47.5078 -106.265 -113.793 10.4498 88.5176 57.4209 22.5828 -76.3796 24.7674 7.00635 -20.9779 17.8339 -2.20416 16.06 -162.404 59.0256 76.7823 -109.711 10.1792 -11.0934 -15.5585 32.5074 40.0847 31.0142 -13.2505 62.7861 0.515526 7.08033 -88.8542 12.6944 1.57127 2.10462 1.0228 1.66236 2.03345 -21.5016 0.866321 2.47934 -1.48895 0.866339 2.47935 120.129 -60.7076 -57.6826 46.816 -0.566681 -83.9293 157.117 5.63583 -179.988 13.2704 -24.7114 -126.888 -99.7012 -42.9926 61.399 -17.1225 -13.5888 60.5459 6.44285 17.6655 -100.502 -22.4025 -11.1598 53.1482 -54.8073 12.9338 -17.514 47.7678 27.5445 42.6857 
284.949 74.9725 -290.345 -104.117 -48.171 -109.103 -113.575 9.76919 85.9638 59.572 24.3973 -76.5234 23.1255 4.43572 -20.8857 22.3244 -1.83858 14.7434 -162.91 52.6157 78.4174 -104.407 46.0081 -19.012 -18.357 29.5267 37.6428 19.1333 -9.38597 103.201 0.276223 7.33479 -88.6213 12.1832 1.20163 2.61794 0.510229 1.31565 2.56255 -22.0045 0.359634 2.85783 -1.99182 0.359624 2.85784 118.806 -63.4284 -60.1424 41.3438 -0.690762 -85.0969 161.14 -2.5127 -179.99 16.8068 -29.1855 -124.078 -97.4176 -40.1923 63.876 -19.2012 -13.1866 58.7716 4.20194 17.8552 -103.074 -21.2641 -11.8307 59.0801 -53.2585 13.564 -17.6681 49.4977 28.6137 41.6955 
